<?xml version="1.0" standalone="no"?>
<!DOCTYPE svg PUBLIC "-//W3C//DTD SVG 20010904//EN"
 "http://www.w3.org/TR/2001/REC-SVG-20010904/DTD/svg10.dtd">
<svg version="1.0" xmlns="http://www.w3.org/2000/svg"
 width="128.000000pt" height="128.000000pt" viewBox="0 0 128.000000 128.000000"
 preserveAspectRatio="xMidYMid meet">

<g transform="translate(0.000000,128.000000) scale(0.100000,-0.100000)"
fill="#000000" stroke="none">
<path d="M300 1260 c-25 -25 -25 -66 0 -108 26 -42 25 -46 -5 -60 -27 -13 -34
-49 -11 -58 19 -7 73 21 86 45 16 31 12 66 -11 95 -19 24 -20 31 -9 51 26 48
-11 74 -50 35z"/>
<path d="M550 1260 c-26 -26 -26 -74 2 -112 l22 -31 -27 -21 c-51 -41 -25 -81
32 -52 55 29 66 77 29 128 -17 25 -19 34 -10 49 16 26 15 46 -4 53 -22 8 -22
8 -44 -14z"/>
<path d="M802 1264 c-29 -20 -29 -75 0 -116 l21 -31 -34 -28 c-32 -26 -33 -29
-17 -45 14 -15 21 -15 48 -4 62 26 75 75 36 133 -21 30 -22 38 -10 48 19 15
18 45 -2 53 -20 8 -16 9 -42 -10z"/>
<path d="M318 959 c-140 -9 -203 -32 -214 -75 -9 -36 3 -364 16 -428 5 -27 20
-68 32 -93 27 -53 102 -126 152 -147 89 -37 338 -45 474 -16 69 15 138 64 182
128 33 50 36 52 80 52 59 0 106 32 153 103 55 82 80 152 81 228 1 54 -3 71
-19 89 -32 36 -66 48 -140 52 -66 3 -70 5 -85 33 -25 50 -70 64 -236 75 -169
11 -306 11 -476 -1z m496 -99 c65 -5 121 -11 124 -15 3 -3 1 -90 -6 -193 -11
-172 -14 -191 -39 -242 -38 -74 -87 -106 -183 -121 -101 -16 -302 -6 -358 16
-57 23 -117 93 -132 153 -13 57 -29 373 -19 385 18 22 408 33 613 17z m342
-110 c24 -10 26 -14 22 -54 -6 -54 -51 -152 -85 -188 -15 -16 -37 -28 -50 -28
l-23 0 6 123 c4 67 11 130 16 140 10 20 70 23 114 7z"/>
<path d="M275 744 c-13 -14 -15 -29 -10 -83 21 -217 36 -265 97 -294 69 -34
104 26 50 87 -30 35 -34 51 -48 206 -4 41 -11 81 -17 88 -14 17 -53 15 -72 -4z"/>
<path d="M14 106 c-121 -90 698 -144 1001 -66 44 11 86 27 95 36 13 14 13 17
-4 30 -29 21 -1063 21 -1092 0z"/>
</g>
</svg>
